<svg xmlns="http://www.w3.org/2000/svg" width="348" height="363" viewBox="0 0 348 363">
<g>
<path d="M 200.50 362.07 C196.65,362.39 228.26,362.73 270.75,362.82 L 348.00 363.00 L 0.00 363.00 L 46.25 362.85 C71.69,362.77 91.26,362.51 89.75,362.28 L 87.00 361.87 L 87.00 294.09 L 79.75 293.79 L 72.50 293.50 L 72.50 277.50 L 55.00 276.92 L 55.00 260.08 L 37.50 259.50 L 37.21 251.29 L 36.92 243.08 L 28.71 242.79 L 20.50 242.50 L 20.21 233.62 L 19.92 224.75 L 13.14 225.42 C9.20,225.81 5.23,225.66 3.68,225.07 L 1.00 224.05 L 1.00 129.00 L 6.92 129.00 C10.17,129.00 13.54,128.73 14.39,128.40 C15.76,127.88 15.99,129.93 16.23,145.15 L 16.50 162.50 L 24.25 162.79 L 32.00 163.08 L 32.00 170.93 L 32.00 171.15 C32.00,175.23 32.00,177.43 33.09,178.61 C34.36,179.97 37.09,179.97 42.98,179.99 L 43.25 179.99 L 50.00 180.00 L 50.00 196.05 L 68.25 195.77 L 86.50 195.50 L 86.50 180.50 L 106.50 179.50 L 107.08 163.06 L 133.50 162.50 L 133.79 153.78 L 134.08 145.06 L 145.79 144.78 L 157.50 144.50 L 158.09 130.00 L 163.29 129.84 C166.16,129.75 169.40,129.77 170.50,129.88 C171.60,129.99 173.51,129.83 174.75,129.52 L 177.00 128.96 L 177.00 18.00 L 184.43 18.00 C194.09,18.00 195.00,17.13 195.00,7.93 L 195.00 1.00 L 329.92 1.00 L 330.50 17.50 L 348.00 18.08 L 348.00 92.50 L 304.96 92.77 L 261.92 93.04 L 262.21 101.77 L 262.50 110.50 L 288.80 110.77 L 315.09 111.03 L 314.80 117.77 L 314.50 124.50 L 279.75 124.76 L 245.00 125.03 L 245.00 159.00 L 280.05 159.00 L 279.50 194.50 L 262.50 194.50 L 261.92 178.00 L 242.03 178.00 L 241.50 235.50 L 232.78 235.79 L 224.06 236.08 L 223.78 248.29 L 223.50 260.50 L 215.26 260.79 C210.81,260.95 208.54,260.93 207.34,262.05 C206.00,263.31 205.99,266.01 205.76,272.00 L 205.50 278.50 L 198.25 278.79 L 191.00 279.09 L 191.00 312.51 C191.00,315.31 191.00,317.90 190.99,320.28 C190.96,339.59 190.94,345.54 193.67,347.33 C194.88,348.12 196.64,348.08 199.18,348.03 C199.89,348.02 200.65,348.00 201.48,348.00 L 208.09 348.00 L 207.80 354.75 L 207.50 361.50 ZM 119.80 361.80 C118.87,362.73 125.70,362.96 150.55,362.84 C168.12,362.75 181.04,362.50 179.25,362.28 L 176.00 361.87 L 176.00 312.00 L 158.00 312.00 L 158.00 295.00 L 136.08 295.00 L 135.79 303.25 L 135.50 311.50 L 128.25 311.79 L 121.00 312.09 L 121.00 329.92 L 104.50 330.50 L 104.50 346.50 L 121.00 347.08 L 121.00 353.84 C121.00,357.76 120.50,361.10 119.80,361.80 ZM 207.00 25.00 L 207.00 44.00 L 230.00 44.00 L 230.00 25.00 Z" fill="rgb(0,0,0)"/>
<path d="M 0.00 225.48 L 0.00 129.21 L 1.00 129.17 L 1.00 224.05 L 3.68 225.07 C4.05,225.21 4.55,225.32 5.16,225.41 ZM 15.13 128.52 L 15.95 128.49 L 16.16 141.52 C15.99,132.39 15.78,129.27 15.13,128.52 ZM 14.50 225.28 L 19.92 224.75 L 20.21 233.62 L 20.50 242.50 L 19.93 225.21 ZM 4.66 129.00 L 13.57 128.60 C12.16,128.83 9.50,129.00 6.92,129.00 Z" fill="rgb(152,152,152)"/>
<path d="M 329.92 1.00 L 195.00 1.00 L 195.00 0.00 L 330.00 0.00 L 330.00 3.30 ZM 330.67 17.33 C330.73,17.40 330.92,17.46 331.20,17.52 L 330.50 17.50 L 330.47 16.79 C330.54,17.08 330.60,17.27 330.67,17.33 ZM 193.15 16.58 C194.78,15.21 195.00,12.56 195.00,7.43 L 195.00 7.93 C195.00,12.72 194.75,15.26 193.15,16.58 ZM 345.64 18.00 L 348.00 18.00 L 348.00 18.08 Z" fill="rgb(205,205,205)"/>
<path d="M 206.55 268.42 C207.11,271.43 207.41,271.73 208.60,270.54 C210.32,268.83 210.47,262.50 209.10,261.23 C210.45,260.92 212.40,260.89 215.26,260.79 L 223.50 260.50 L 223.78 248.29 L 224.06 236.08 L 232.78 235.79 L 241.50 235.50 L 242.01 180.02 L 242.16 204.75 C242.25,219.46 242.50,230.04 242.72,228.25 L 243.13 225.00 L 255.00 225.00 L 255.00 210.00 L 243.00 210.00 L 243.00 195.00 L 255.00 195.00 L 255.00 180.00 L 261.11 180.00 L 260.91 187.50 L 260.71 195.00 L 255.00 195.00 L 255.00 210.00 L 270.00 210.00 L 270.00 196.12 L 273.75 195.73 C276.07,195.49 274.96,195.27 270.83,195.17 C267.00,195.07 264.73,195.06 263.41,194.50 L 279.50 194.50 L 280.00 161.98 C280.02,165.32 280.59,165.92 283.06,165.27 C284.76,164.83 285.00,163.85 285.00,157.38 L 285.00 150.00 L 270.00 150.00 L 270.00 153.50 C270.00,155.43 269.55,157.00 269.00,157.00 C268.45,157.00 268.00,157.45 268.00,158.00 C268.00,158.56 270.67,159.00 274.00,159.00 L 251.00 159.00 C254.33,159.00 257.00,158.56 257.00,158.00 C257.00,157.45 256.55,157.00 256.00,157.00 C255.45,157.00 255.00,155.43 255.00,153.50 L 255.00 150.00 L 246.00 150.00 L 246.00 135.00 L 255.00 135.00 L 255.00 126.00 L 270.00 126.00 L 270.00 135.00 L 285.00 135.00 L 285.00 126.00 L 300.00 126.00 L 300.00 135.00 L 315.00 135.00 L 315.00 129.75 L 315.00 124.50 L 280.00 124.78 L 245.00 125.05 L 245.00 125.03 L 279.75 124.76 L 314.50 124.50 L 314.80 117.77 L 315.02 112.61 L 315.08 116.77 C315.12,119.92 315.38,121.94 315.66,121.25 C316.00,120.42 318.49,120.00 323.08,120.00 L 330.00 120.00 L 330.00 105.00 L 322.50 105.00 C315.67,105.00 315.00,105.18 315.00,107.00 C315.00,108.82 314.33,109.00 307.50,109.00 C300.67,109.00 300.00,108.82 300.00,107.00 C300.00,105.18 299.33,105.00 292.50,105.00 C285.67,105.00 285.00,105.18 285.00,107.00 C285.00,108.82 284.33,109.00 277.50,109.00 C270.67,109.00 270.00,108.82 270.00,107.00 C270.00,105.38 269.33,105.00 266.50,105.00 L 263.00 105.00 L 263.00 94.00 L 270.00 94.00 L 270.00 105.00 L 285.00 105.00 L 285.00 94.00 L 300.00 94.00 L 300.00 105.00 L 315.00 105.00 L 315.00 94.00 L 330.00 94.00 L 330.00 105.00 L 345.00 105.00 L 345.00 120.00 L 330.00 120.00 L 330.00 135.00 L 345.00 135.00 L 345.00 150.00 L 330.00 150.00 L 330.00 165.00 L 345.00 165.00 L 345.00 180.00 L 330.00 180.00 L 330.00 195.00 L 345.00 195.00 L 345.00 210.00 L 330.00 210.00 L 330.00 225.00 L 345.00 225.00 L 345.00 240.00 L 330.00 240.00 L 330.00 255.00 L 345.00 255.00 L 345.00 270.00 L 330.00 270.00 L 330.00 285.00 L 345.00 285.00 L 345.00 300.00 L 330.00 300.00 L 330.00 315.00 L 345.00 315.00 L 345.00 330.00 L 330.00 330.00 L 330.00 345.00 L 345.00 345.00 L 345.00 360.00 L 330.00 360.00 L 330.00 345.00 L 315.00 345.00 L 315.00 360.00 L 300.00 360.00 L 300.00 345.00 L 285.00 345.00 L 285.00 360.00 L 270.00 360.00 L 270.00 345.00 L 255.00 345.00 L 255.00 360.00 L 240.00 360.00 L 240.00 345.00 L 225.00 345.00 L 225.00 360.00 L 217.50 360.00 C211.50,360.00 210.00,360.30 210.00,361.50 C210.00,361.91 210.17,362.21 210.64,362.44 C202.86,362.32 199.00,362.20 200.50,362.07 L 207.50 361.50 L 207.80 354.75 L 208.00 350.09 L 208.00 354.56 C208.00,358.68 208.37,360.89 209.00,360.50 C209.55,360.16 210.00,356.53 210.00,352.44 L 210.00 345.00 L 195.00 345.00 L 195.00 337.50 C195.00,331.50 194.70,330.00 193.50,330.00 C192.30,330.00 192.00,328.50 192.00,322.50 C192.00,316.50 192.30,315.00 193.50,315.00 C194.70,315.00 195.00,313.50 195.00,307.50 C195.00,301.50 194.70,300.00 193.50,300.00 C192.30,300.00 192.00,298.50 192.00,292.50 C192.00,286.50 192.30,285.00 193.50,285.00 C194.42,285.00 195.00,284.06 195.00,282.56 C195.00,280.48 195.55,280.06 198.75,279.73 C201.53,279.44 201.02,279.29 196.75,279.17 L 192.26 279.04 L 198.25 278.79 L 205.50 278.50 L 205.76 272.00 C205.91,268.10 205.96,265.60 206.36,263.98 C206.18,265.20 206.23,266.73 206.55,268.42 ZM 15.13 128.52 C14.93,128.30 14.69,128.29 14.39,128.40 C14.22,128.47 13.94,128.53 13.57,128.60 L 7.98 128.85 L 4.66 129.00 L 1.00 129.00 L 1.00 129.17 L 0.00 129.21 L 0.00 124.50 C0.00,128.33 0.30,129.00 2.00,129.00 C3.10,129.00 4.00,128.55 4.00,128.00 C4.00,127.45 6.47,127.00 9.50,127.00 L 15.00 127.00 L 15.00 120.00 L 0.00 120.00 L 0.00 105.00 L 15.00 105.00 L 15.00 90.00 L 0.00 90.00 L 0.00 75.00 L 15.00 75.00 L 15.00 60.00 L 0.00 60.00 L 0.00 45.00 L 15.00 45.00 L 15.00 30.00 L 0.00 30.00 L 0.00 15.00 L 15.00 15.00 L 15.00 0.00 L 30.00 0.00 L 30.00 15.00 L 45.00 15.00 L 45.00 0.00 L 60.00 0.00 L 60.00 15.00 L 75.00 15.00 L 75.00 0.00 L 90.00 0.00 L 90.00 15.00 L 105.00 15.00 L 105.00 0.00 L 120.00 0.00 L 120.00 15.00 L 135.00 15.00 L 135.00 0.00 L 150.00 0.00 L 150.00 15.00 L 165.00 15.00 L 165.00 0.00 L 179.92 0.00 L 180.21 7.75 L 180.50 15.50 L 187.00 16.00 C190.23,16.25 192.90,16.13 193.89,15.73 C193.68,16.06 193.44,16.34 193.15,16.58 C191.68,17.80 189.06,18.00 184.43,18.00 L 178.50 18.00 C179.32,18.00 180.00,17.33 180.00,16.50 C180.00,15.30 178.50,15.00 172.50,15.00 L 165.00 15.00 L 165.00 30.00 L 175.00 30.00 L 175.00 45.00 L 165.00 45.00 L 165.00 60.00 L 175.00 60.00 L 175.00 75.00 L 165.00 75.00 L 165.00 90.00 L 175.00 90.00 L 175.00 105.00 L 165.00 105.00 L 165.00 120.00 L 175.00 120.00 L 175.00 124.00 C175.00,126.20 175.45,128.00 176.00,128.00 C176.65,128.00 177.00,109.00 177.00,73.00 L 177.00 128.96 L 174.75 129.52 C173.51,129.83 171.60,129.99 170.50,129.88 C169.64,129.80 167.48,129.77 165.22,129.80 C166.30,129.62 167.00,129.33 167.00,129.00 C167.00,128.45 166.55,128.00 166.00,128.00 C165.45,128.00 165.00,126.20 165.00,124.00 L 165.00 120.00 L 150.00 120.00 L 150.00 135.00 L 153.00 135.00 C155.83,135.00 156.00,135.22 156.00,139.00 C156.00,142.78 155.83,143.00 153.00,143.00 C150.17,143.00 150.00,142.78 150.00,139.00 L 150.00 135.00 L 135.15 135.00 L 134.86 139.75 L 134.57 144.50 L 157.50 144.50 L 145.79 144.78 L 134.08 145.06 L 133.91 150.00 L 120.00 150.00 L 120.00 161.00 L 114.50 161.00 C111.39,161.00 109.00,161.45 109.00,162.03 C109.00,162.59 112.03,162.87 117.66,162.83 L 107.08 163.06 L 106.50 179.50 L 106.79 170.25 C106.97,164.34 106.70,161.00 106.04,161.00 C105.45,161.00 105.00,158.63 105.00,155.50 L 105.00 150.00 L 90.00 150.00 L 90.00 165.00 L 105.11 165.00 L 104.68 178.00 L 90.00 178.00 L 90.00 165.00 L 75.00 165.00 L 75.00 180.00 L 85.00 180.00 L 85.00 194.00 L 75.00 194.00 L 75.00 180.00 L 60.00 180.00 L 60.00 194.00 L 51.00 194.00 L 51.00 180.00 L 60.00 180.00 L 60.00 165.00 L 45.00 165.00 L 45.00 170.92 C45.00,174.71 44.55,177.01 43.75,177.34 C43.06,177.62 43.51,177.88 44.75,177.92 C45.99,177.96 47.00,178.45 47.00,179.00 C47.00,179.52 47.61,179.96 48.38,180.00 L 43.25 179.99 L 42.98 179.99 C37.74,179.98 35.00,179.97 33.57,179.01 C33.85,178.89 34.16,178.56 34.50,178.00 C34.84,177.45 34.64,177.00 34.06,177.00 C33.43,177.00 33.00,174.56 33.00,171.00 L 33.00 165.00 L 45.00 165.00 L 45.00 150.00 L 30.00 150.00 L 30.00 161.00 L 17.00 161.00 L 17.00 150.00 L 30.00 150.00 L 30.00 135.00 L 23.57 135.00 C17.32,135.00 17.12,134.92 16.70,132.25 C16.47,130.74 16.32,136.93 16.39,146.00 L 16.50 162.50 L 16.23 145.15 C16.21,143.85 16.18,142.64 16.16,141.52 L 15.95 128.49 ZM 45.00 30.00 L 30.00 30.00 L 30.00 15.00 L 15.00 15.00 L 15.00 30.00 L 30.00 30.00 L 30.00 45.00 L 15.00 45.00 L 15.00 60.00 L 30.00 60.00 L 30.00 75.00 L 15.00 75.00 L 15.00 90.00 L 30.00 90.00 L 30.00 105.00 L 15.00 105.00 L 15.00 120.00 L 30.00 120.00 L 30.00 135.00 L 45.00 135.00 L 45.00 150.00 L 60.00 150.00 L 60.00 165.00 L 75.00 165.00 L 75.00 150.00 L 90.00 150.00 L 90.00 135.00 L 105.00 135.00 L 105.00 150.00 L 120.00 150.00 L 120.00 135.00 L 135.00 135.00 L 135.00 120.00 L 150.00 120.00 L 150.00 105.00 L 165.00 105.00 L 165.00 90.00 L 150.00 90.00 L 150.00 75.00 L 165.00 75.00 L 165.00 60.00 L 150.00 60.00 L 150.00 45.00 L 165.00 45.00 L 165.00 30.00 L 150.00 30.00 L 150.00 15.00 L 135.00 15.00 L 135.00 30.00 L 120.00 30.00 L 120.00 15.00 L 105.00 15.00 L 105.00 30.00 L 90.00 30.00 L 90.00 15.00 L 75.00 15.00 L 75.00 30.00 L 60.00 30.00 L 60.00 15.00 L 45.00 15.00 ZM 300.00 180.00 L 300.00 195.00 L 285.00 195.00 L 285.00 187.62 C285.00,181.15 284.76,180.17 283.06,179.73 C281.99,179.45 280.86,179.47 280.56,179.78 C280.25,180.08 280.00,183.63 280.00,187.67 C280.00,194.82 280.06,195.00 282.50,195.00 C284.94,195.00 285.00,195.17 285.00,202.50 L 285.00 210.00 L 270.00 210.00 L 270.00 225.00 L 255.00 225.00 L 255.00 240.00 L 240.00 240.00 L 240.00 255.00 L 232.58 255.00 C227.64,255.00 225.03,254.59 224.76,253.78 C224.54,253.11 224.55,256.49 224.79,261.28 L 225.22 270.00 L 240.00 270.00 L 240.00 285.00 L 225.00 285.00 L 225.00 270.00 L 210.00 270.00 L 210.00 285.00 L 195.00 285.00 L 195.00 300.00 L 210.00 300.00 L 210.00 315.00 L 195.00 315.00 L 195.00 330.00 L 210.00 330.00 L 210.00 345.00 L 225.00 345.00 L 225.00 330.00 L 240.00 330.00 L 240.00 345.00 L 255.00 345.00 L 255.00 330.00 L 270.00 330.00 L 270.00 345.00 L 285.00 345.00 L 285.00 330.00 L 300.00 330.00 L 300.00 345.00 L 315.00 345.00 L 315.00 330.00 L 330.00 330.00 L 330.00 315.00 L 315.00 315.00 L 315.00 300.00 L 330.00 300.00 L 330.00 285.00 L 315.00 285.00 L 315.00 270.00 L 330.00 270.00 L 330.00 255.00 L 315.00 255.00 L 315.00 240.00 L 330.00 240.00 L 330.00 225.00 L 315.00 225.00 L 315.00 210.00 L 330.00 210.00 L 330.00 195.00 L 315.00 195.00 L 315.00 180.00 L 330.00 180.00 L 330.00 165.00 L 315.00 165.00 L 315.00 150.00 L 330.00 150.00 L 330.00 135.00 L 315.00 135.00 L 315.00 150.00 L 300.00 150.00 L 300.00 135.00 L 285.00 135.00 L 285.00 150.00 L 300.00 150.00 L 300.00 165.00 L 285.00 165.00 L 285.00 180.00 ZM 45.00 45.00 L 45.00 30.00 L 60.00 30.00 L 60.00 45.00 L 75.00 45.00 L 75.00 30.00 L 90.00 30.00 L 90.00 45.00 L 105.00 45.00 L 105.00 30.00 L 120.00 30.00 L 120.00 45.00 L 135.00 45.00 L 135.00 30.00 L 150.00 30.00 L 150.00 45.00 L 135.00 45.00 L 135.00 60.00 L 150.00 60.00 L 150.00 75.00 L 135.00 75.00 L 135.00 90.00 L 150.00 90.00 L 150.00 105.00 L 135.00 105.00 L 135.00 120.00 L 120.00 120.00 L 120.00 135.00 L 105.00 135.00 L 105.00 120.00 L 90.00 120.00 L 90.00 135.00 L 75.00 135.00 L 75.00 150.00 L 60.00 150.00 L 60.00 135.00 L 45.00 135.00 L 45.00 120.00 L 60.00 120.00 L 60.00 105.00 L 45.00 105.00 L 45.00 90.00 L 30.00 90.00 L 30.00 75.00 L 45.00 75.00 L 45.00 60.00 L 30.00 60.00 L 30.00 45.00 ZM 0.00 361.50 C0.00,362.54 1.13,362.90 5.34,362.98 L 0.00 363.00 L 0.00 345.00 L 15.00 345.00 L 15.00 330.00 L 0.00 330.00 L 0.00 315.00 L 15.00 315.00 L 15.00 300.00 L 0.00 300.00 L 0.00 285.00 L 15.00 285.00 L 15.00 270.00 L 0.00 270.00 L 0.00 255.00 L 15.00 255.00 L 15.00 240.00 L 0.00 240.00 L 0.00 225.48 L 5.16 225.41 C7.12,225.70 10.13,225.71 13.14,225.42 L 14.50 225.28 L 19.93 225.21 L 20.50 242.50 L 28.71 242.79 L 35.58 243.03 L 29.25 243.17 C24.57,243.28 23.18,243.50 25.75,243.73 L 30.00 244.11 L 30.00 255.00 L 15.00 255.00 L 15.00 270.00 L 30.00 270.00 L 30.00 262.50 C30.00,255.17 30.06,255.00 32.50,255.00 C33.88,255.00 35.00,255.45 35.00,256.00 C35.00,256.55 35.45,257.00 36.00,257.00 C36.57,257.00 37.00,254.00 37.00,250.00 L 37.00 245.33 L 37.21 251.29 L 37.50 259.50 L 53.51 260.03 L 46.75 260.16 C42.21,260.25 39.96,260.50 41.75,260.72 C44.87,261.11 45.00,261.31 45.00,265.56 L 45.00 270.00 L 49.00 270.00 C52.60,270.00 53.00,270.25 53.00,272.50 C53.00,273.88 53.45,275.00 54.00,275.00 C54.58,275.00 55.00,271.83 55.00,267.50 L 55.00 276.92 L 72.50 277.50 L 72.50 280.16 C72.36,278.33 71.78,277.53 70.75,277.58 C69.79,277.63 66.41,277.78 63.25,277.91 C60.09,278.05 58.06,278.38 58.75,278.66 C59.44,278.94 60.00,280.48 60.00,282.08 L 60.00 285.00 L 71.00 285.00 L 71.14 288.25 C71.28,291.32 71.32,291.27 71.90,287.50 C72.22,285.45 72.42,283.75 72.50,282.37 L 72.50 293.50 L 79.75 293.79 L 85.30 294.02 L 79.75 294.08 C75.76,294.12 73.06,294.38 73.75,294.66 C74.44,294.94 75.00,296.25 75.00,297.58 C75.00,299.92 74.76,300.00 67.50,300.00 L 60.00 300.00 L 60.00 315.00 L 75.00 315.00 L 75.00 300.00 L 85.00 300.00 L 85.00 315.00 L 75.00 315.00 L 75.00 330.00 L 85.00 330.00 L 85.00 345.00 L 75.00 345.00 L 75.00 360.00 L 60.00 360.00 L 60.00 345.00 L 45.00 345.00 L 45.00 360.00 L 30.00 360.00 L 30.00 345.00 L 15.00 345.00 L 15.00 360.00 L 7.50 360.00 C1.50,360.00 0.00,360.30 0.00,361.50 ZM 225.00 315.00 L 225.00 330.00 L 210.00 330.00 L 210.00 315.00 L 225.00 315.00 L 225.00 300.00 L 210.00 300.00 L 210.00 285.00 L 225.00 285.00 L 225.00 300.00 L 240.00 300.00 L 240.00 285.00 L 255.00 285.00 L 255.00 270.00 L 240.00 270.00 L 240.00 255.00 L 255.00 255.00 L 255.00 240.00 L 270.00 240.00 L 270.00 225.00 L 285.00 225.00 L 285.00 240.00 L 300.00 240.00 L 300.00 225.00 L 315.00 225.00 L 315.00 240.00 L 300.00 240.00 L 300.00 255.00 L 315.00 255.00 L 315.00 270.00 L 300.00 270.00 L 300.00 285.00 L 315.00 285.00 L 315.00 300.00 L 300.00 300.00 L 300.00 315.00 L 315.00 315.00 L 315.00 330.00 L 300.00 330.00 L 300.00 315.00 L 285.00 315.00 L 285.00 330.00 L 270.00 330.00 L 270.00 315.00 L 255.00 315.00 L 255.00 330.00 L 240.00 330.00 L 240.00 315.00 ZM 60.00 60.00 L 60.00 45.00 L 45.00 45.00 L 45.00 60.00 L 60.00 60.00 L 60.00 75.00 L 45.00 75.00 L 45.00 90.00 L 60.00 90.00 L 60.00 75.00 L 75.00 75.00 L 75.00 60.00 L 90.00 60.00 L 90.00 75.00 L 105.00 75.00 L 105.00 90.00 L 90.00 90.00 L 90.00 105.00 L 105.00 105.00 L 105.00 120.00 L 120.00 120.00 L 120.00 105.00 L 135.00 105.00 L 135.00 90.00 L 120.00 90.00 L 120.00 75.00 L 135.00 75.00 L 135.00 60.00 L 120.00 60.00 L 120.00 45.00 L 105.00 45.00 L 105.00 60.00 L 90.00 60.00 L 90.00 45.00 L 75.00 45.00 L 75.00 60.00 ZM 270.00 255.00 L 255.00 255.00 L 255.00 270.00 L 270.00 270.00 L 270.00 285.00 L 255.00 285.00 L 255.00 300.00 L 240.00 300.00 L 240.00 315.00 L 255.00 315.00 L 255.00 300.00 L 270.00 300.00 L 270.00 315.00 L 285.00 315.00 L 285.00 300.00 L 300.00 300.00 L 300.00 285.00 L 285.00 285.00 L 285.00 270.00 L 300.00 270.00 L 300.00 255.00 L 285.00 255.00 L 285.00 240.00 L 270.00 240.00 ZM 135.00 330.00 L 122.00 330.00 L 122.00 315.00 L 135.00 315.00 L 135.00 330.00 L 150.00 330.00 L 150.00 315.00 L 157.50 315.00 C161.62,315.00 165.00,314.57 165.00,314.05 C165.00,313.53 167.59,312.94 170.75,312.74 C174.91,312.48 173.94,312.33 167.25,312.19 L 158.00 312.00 L 176.00 312.00 L 176.00 313.75 L 172.88 314.38 C171.16,314.72 168.68,315.00 167.38,315.00 C165.09,315.00 165.00,315.27 165.00,322.50 L 165.00 330.00 L 176.00 330.00 L 176.00 345.00 L 165.00 345.00 L 165.00 360.00 L 150.00 360.00 L 150.00 345.00 L 135.00 345.00 L 135.00 360.00 L 122.10 360.00 L 121.74 354.25 L 121.38 348.50 L 121.19 354.55 C121.09,357.62 120.55,360.63 119.95,361.60 C120.57,360.60 121.00,357.47 121.00,353.84 L 121.00 347.08 L 120.60 347.07 C121.45,346.92 121.70,346.66 121.54,346.25 C121.19,345.32 122.87,345.00 128.03,345.00 L 135.00 345.00 ZM 45.00 315.00 L 45.00 300.00 L 30.00 300.00 L 30.00 315.00 L 15.00 315.00 L 15.00 330.00 L 30.00 330.00 L 30.00 345.00 L 45.00 345.00 L 45.00 330.00 L 60.00 330.00 L 60.00 345.00 L 75.00 345.00 L 75.00 330.00 L 60.00 330.00 L 60.00 315.00 ZM 339.74 362.98 C343.89,362.90 345.00,362.53 345.00,361.50 C345.00,360.67 345.67,360.00 346.50,360.00 C347.70,360.00 348.00,358.50 348.00,352.50 C348.00,346.50 347.70,345.00 346.50,345.00 C345.30,345.00 345.00,343.50 345.00,337.50 C345.00,331.50 345.30,330.00 346.50,330.00 C347.70,330.00 348.00,328.50 348.00,322.50 C348.00,316.50 347.70,315.00 346.50,315.00 C345.30,315.00 345.00,313.50 345.00,307.50 C345.00,301.50 345.30,300.00 346.50,300.00 C347.70,300.00 348.00,298.50 348.00,292.50 C348.00,286.50 347.70,285.00 346.50,285.00 C345.30,285.00 345.00,283.50 345.00,277.50 C345.00,271.50 345.30,270.00 346.50,270.00 C347.70,270.00 348.00,268.50 348.00,262.50 C348.00,256.50 347.70,255.00 346.50,255.00 C345.30,255.00 345.00,253.50 345.00,247.50 C345.00,241.50 345.30,240.00 346.50,240.00 C347.70,240.00 348.00,238.50 348.00,232.50 C348.00,226.50 347.70,225.00 346.50,225.00 C345.30,225.00 345.00,223.50 345.00,217.50 C345.00,211.50 345.30,210.00 346.50,210.00 C347.70,210.00 348.00,208.50 348.00,202.50 C348.00,196.50 347.70,195.00 346.50,195.00 C345.30,195.00 345.00,193.50 345.00,187.50 C345.00,181.50 345.30,180.00 346.50,180.00 C347.70,180.00 348.00,178.50 348.00,172.50 C348.00,166.50 347.70,165.00 346.50,165.00 C345.30,165.00 345.00,163.50 345.00,157.50 C345.00,151.50 345.30,150.00 346.50,150.00 C347.70,150.00 348.00,148.50 348.00,142.50 C348.00,136.50 347.70,135.00 346.50,135.00 C345.30,135.00 345.00,133.50 345.00,127.50 C345.00,121.50 345.30,120.00 346.50,120.00 C347.70,120.00 348.00,118.50 348.00,112.50 C348.00,106.50 347.70,105.00 346.50,105.00 C345.35,105.00 345.00,103.72 345.00,99.50 C345.00,95.28 345.35,94.00 346.50,94.00 C347.31,94.00 347.98,93.67 348.00,93.27 L 348.00 363.00 ZM 30.00 285.00 L 45.00 285.00 L 45.00 270.00 L 30.00 270.00 L 30.00 285.00 ZM 30.00 285.00 L 15.00 285.00 L 15.00 300.00 L 30.00 300.00 ZM 45.00 300.00 L 60.00 300.00 L 60.00 285.00 L 45.00 285.00 L 45.00 300.00 ZM 45.00 315.00 L 45.00 330.00 L 30.00 330.00 L 30.00 315.00 L 45.00 315.00 ZM 45.00 120.00 L 30.00 120.00 L 30.00 105.00 L 45.00 105.00 L 45.00 120.00 ZM 75.00 120.00 L 60.00 120.00 L 60.00 135.00 L 75.00 135.00 L 75.00 120.00 ZM 75.00 90.00 L 60.00 90.00 L 60.00 105.00 L 75.00 105.00 ZM 75.00 105.00 L 75.00 120.00 L 90.00 120.00 L 90.00 105.00 ZM 75.00 75.00 L 75.00 90.00 L 90.00 90.00 L 90.00 75.00 ZM 105.00 90.00 L 120.00 90.00 L 120.00 105.00 L 105.00 105.00 L 105.00 90.00 ZM 105.00 75.00 L 105.00 60.00 L 120.00 60.00 L 120.00 75.00 L 105.00 75.00 ZM 285.00 225.00 L 285.00 210.00 L 300.00 210.00 L 300.00 225.00 L 285.00 225.00 ZM 270.00 255.00 L 285.00 255.00 L 285.00 270.00 L 270.00 270.00 ZM 270.00 300.00 L 270.00 285.00 L 285.00 285.00 L 285.00 300.00 ZM 300.00 210.00 L 300.00 195.00 L 315.00 195.00 L 315.00 210.00 L 300.00 210.00 ZM 300.00 180.00 L 300.00 165.00 L 315.00 165.00 L 315.00 180.00 L 300.00 180.00 ZM 270.00 150.00 L 270.00 135.00 L 255.00 135.00 L 255.00 150.00 L 270.00 150.00 ZM 150.00 330.00 L 150.00 345.00 L 165.00 345.00 L 165.00 330.00 ZM 104.50 343.55 L 104.50 330.50 L 120.20 329.95 C119.96,330.40 119.65,330.69 119.25,330.92 C118.28,331.49 118.06,331.95 118.75,331.97 C119.62,331.99 120.00,333.98 120.00,338.50 L 120.00 345.00 L 112.58 345.00 C107.62,345.00 104.98,344.59 104.60,343.75 C104.57,343.67 104.53,343.60 104.50,343.55 ZM 142.50 315.00 C136.50,315.00 135.00,314.70 135.00,313.50 C135.00,312.31 133.56,312.00 128.00,312.00 L 123.16 312.00 L 128.25 311.79 L 135.50 311.50 L 135.79 303.25 L 136.03 296.35 L 136.18 302.25 C136.32,307.78 136.45,308.37 136.74,304.75 L 137.11 300.00 L 150.00 300.00 L 150.00 315.00 L 142.50 315.00 ZM 330.67 17.33 C330.60,17.27 330.54,17.08 330.47,16.79 L 330.44 15.86 C330.66,16.46 330.99,16.56 331.45,16.38 C332.25,16.07 335.63,15.75 338.95,15.66 C343.70,15.53 345.02,15.82 345.08,17.00 C345.14,18.18 345.27,18.21 345.70,17.14 C346.16,15.99 346.38,15.99 347.11,17.14 C347.77,18.18 347.97,18.20 347.98,17.22 C347.99,16.51 347.33,15.68 346.50,15.36 C345.35,14.92 345.00,13.04 345.00,7.39 L 345.00 0.00 L 348.00 0.00 L 348.00 18.00 L 345.64 18.00 L 331.20 17.52 C330.92,17.46 330.73,17.40 330.67,17.33 ZM 224.66 240.17 C224.48,240.90 224.52,241.16 224.75,240.75 C224.98,240.34 228.45,240.00 232.47,240.00 C238.93,240.00 239.83,239.77 240.29,238.00 C240.78,236.12 240.32,236.00 232.91,236.00 C226.75,236.00 225.00,236.31 225.00,237.42 C225.00,238.20 224.85,239.44 224.66,240.17 ZM 18.18 241.25 C18.27,241.94 18.61,239.35 18.93,235.50 C19.66,226.60 19.45,225.98 15.64,226.08 C13.91,226.12 13.06,226.38 13.75,226.66 C14.57,226.99 15.00,229.39 15.00,233.58 C15.00,238.62 15.32,240.00 16.50,240.00 C17.33,240.00 18.08,240.56 18.18,241.25 ZM 311.54 362.92 C314.22,362.76 315.00,362.36 315.00,361.50 C315.00,360.30 316.50,360.00 322.50,360.00 C328.50,360.00 330.00,360.30 330.00,361.50 C330.00,362.49 331.02,362.87 334.77,362.97 ZM 10.35 362.97 C14.00,362.86 15.00,362.48 15.00,361.50 C15.00,360.30 16.50,360.00 22.50,360.00 C28.50,360.00 30.00,360.30 30.00,361.50 C30.00,362.32 30.71,362.72 33.09,362.89 ZM 282.43 362.85 C284.40,362.66 285.00,362.26 285.00,361.50 C285.00,360.30 286.50,360.00 292.50,360.00 C298.50,360.00 300.00,360.30 300.00,361.50 C300.00,362.33 300.72,362.73 303.15,362.90 ZM 152.38 362.83 C151.78,362.83 151.17,362.84 150.55,362.84 C142.84,362.88 136.87,362.88 132.33,362.84 C134.39,362.65 135.00,362.25 135.00,361.50 C135.00,360.30 136.50,360.00 142.50,360.00 C148.50,360.00 150.00,360.30 150.00,361.50 C150.00,362.24 150.56,362.63 152.38,362.83 ZM 42.29 362.86 C44.37,362.68 45.00,362.28 45.00,361.50 C45.00,360.30 46.50,360.00 52.50,360.00 C58.50,360.00 60.00,360.30 60.00,361.50 C60.00,362.17 60.47,362.56 61.93,362.77 C57.09,362.81 51.81,362.83 46.25,362.85 ZM 253.11 362.77 C254.54,362.55 255.00,362.16 255.00,361.50 C255.00,360.30 256.50,360.00 262.50,360.00 C268.50,360.00 270.00,360.30 270.00,361.50 C270.00,362.23 270.56,362.63 272.35,362.83 L 270.75 362.82 C264.62,362.81 258.72,362.79 253.11,362.77 ZM 223.96 362.59 C224.73,362.36 225.00,362.01 225.00,361.50 C225.00,360.30 226.50,360.00 232.50,360.00 C238.50,360.00 240.00,360.30 240.00,361.50 C240.00,362.11 240.39,362.49 241.56,362.71 C235.08,362.67 229.17,362.63 223.96,362.59 ZM 73.62 362.67 C74.65,362.45 75.00,362.08 75.00,361.50 C75.00,360.37 76.22,360.00 80.00,360.00 C82.75,360.00 85.00,360.45 85.00,361.00 C85.00,361.55 85.45,362.00 86.00,362.00 C86.65,362.00 87.00,350.00 87.00,328.00 L 87.00 361.87 L 89.75 362.28 C90.64,362.42 84.23,362.56 73.62,362.67 ZM 170.50 360.00 L 176.00 360.00 L 176.00 361.87 L 179.25 362.28 C180.57,362.44 173.91,362.62 163.29,362.74 C164.58,362.52 165.00,362.14 165.00,361.50 C165.00,360.35 166.28,360.00 170.50,360.00 ZM 156.00 298.00 C156.00,299.56 155.33,300.00 153.00,300.00 C150.67,300.00 150.00,299.56 150.00,298.00 C150.00,296.44 150.67,296.00 153.00,296.00 C155.33,296.00 156.00,296.44 156.00,298.00 ZM 348.00 92.50 L 348.00 93.25 C347.91,92.84 328.58,92.62 304.96,92.77 L 348.00 92.50 ZM 262.48 193.85 C261.54,192.77 261.63,190.73 261.79,186.77 C261.80,186.52 261.82,186.26 261.83,185.99 L 262.03 181.07 ZM 108.19 346.63 L 104.50 346.50 L 104.50 345.32 C104.87,346.02 105.77,346.37 108.19,346.63 ZM 194.68 13.47 C194.86,11.90 194.98,9.62 194.98,7.25 L 195.00 0.00 L 195.00 7.43 C195.00,10.02 194.94,11.99 194.68,13.47 ZM 32.39 177.29 C32.00,175.99 32.00,174.04 32.00,171.15 L 32.00 171.04 C32.00,173.87 32.13,175.96 32.39,177.29 ZM 197.00 348.05 C197.64,348.06 198.36,348.05 199.15,348.03 C199.85,348.02 200.61,348.00 201.43,348.00 C200.62,348.00 199.88,348.02 199.18,348.03 L 199.18 348.03 C198.38,348.05 197.65,348.06 197.00,348.05 Z" fill="rgb(239,239,239)"/>
<path d="M 0.00 361.50 C0.00,360.30 1.50,360.00 7.50,360.00 L 15.00 360.00 L 15.00 352.50 L 15.00 345.00 L 7.50 345.00 L 0.00 345.00 L 0.00 337.50 L 0.00 330.00 L 7.50 330.00 L 15.00 330.00 L 15.00 322.50 L 15.00 315.00 L 7.50 315.00 L 0.00 315.00 L 0.00 307.50 L 0.00 300.00 L 7.50 300.00 L 15.00 300.00 L 15.00 292.50 L 15.00 285.00 L 7.50 285.00 L 0.00 285.00 L 0.00 277.50 L 0.00 270.00 L 7.50 270.00 L 15.00 270.00 L 15.00 262.50 L 15.00 255.00 L 7.50 255.00 L 0.00 255.00 L 0.00 247.50 L 0.00 240.00 L 7.50 240.00 L 15.00 240.00 L 15.00 247.50 L 15.00 255.00 L 22.50 255.00 L 30.00 255.00 L 30.00 249.56 L 30.00 244.11 L 25.75 243.73 C23.18,243.50 24.57,243.28 29.25,243.17 L 37.00 243.00 L 37.00 250.00 C37.00,254.00 36.57,257.00 36.00,257.00 C35.45,257.00 35.00,256.55 35.00,256.00 C35.00,255.45 33.88,255.00 32.50,255.00 C30.06,255.00 30.00,255.17 30.00,262.50 L 30.00 270.00 L 37.50 270.00 L 45.00 270.00 L 45.00 265.56 C45.00,261.31 44.87,261.11 41.75,260.72 C39.96,260.50 42.21,260.25 46.75,260.16 L 55.00 260.00 L 55.00 267.50 C55.00,271.83 54.58,275.00 54.00,275.00 C53.45,275.00 53.00,273.88 53.00,272.50 C53.00,270.25 52.60,270.00 49.00,270.00 L 45.00 270.00 L 45.00 277.50 L 45.00 285.00 L 52.50 285.00 L 60.00 285.00 L 60.00 282.08 C60.00,280.48 59.44,278.94 58.75,278.66 C58.06,278.38 60.09,278.05 63.25,277.91 C66.41,277.78 69.79,277.63 70.75,277.58 C72.68,277.49 73.01,280.35 71.90,287.50 C71.32,291.27 71.28,291.32 71.14,288.25 L 71.00 285.00 L 65.50 285.00 L 60.00 285.00 L 60.00 292.50 L 60.00 300.00 L 67.50 300.00 C74.76,300.00 75.00,299.92 75.00,297.58 C75.00,296.25 74.44,294.94 73.75,294.66 C73.06,294.38 75.76,294.12 79.75,294.08 L 87.00 294.00 L 87.00 328.00 C87.00,350.00 86.65,362.00 86.00,362.00 C85.45,362.00 85.00,361.55 85.00,361.00 C85.00,360.45 82.75,360.00 80.00,360.00 C76.22,360.00 75.00,360.37 75.00,361.50 C75.00,362.70 73.50,363.00 67.50,363.00 C61.50,363.00 60.00,362.70 60.00,361.50 C60.00,360.30 58.50,360.00 52.50,360.00 C46.50,360.00 45.00,360.30 45.00,361.50 C45.00,362.70 43.50,363.00 37.50,363.00 C31.50,363.00 30.00,362.70 30.00,361.50 C30.00,360.30 28.50,360.00 22.50,360.00 C16.50,360.00 15.00,360.30 15.00,361.50 C15.00,362.70 13.50,363.00 7.50,363.00 C1.50,363.00 0.00,362.70 0.00,361.50 ZM 45.00 352.50 L 45.00 345.00 L 52.50 345.00 L 60.00 345.00 L 60.00 352.50 L 60.00 360.00 L 67.50 360.00 L 75.00 360.00 L 75.00 352.50 L 75.00 345.00 L 80.00 345.00 L 85.00 345.00 L 85.00 337.50 L 85.00 330.00 L 80.00 330.00 L 75.00 330.00 L 75.00 322.50 L 75.00 315.00 L 80.00 315.00 L 85.00 315.00 L 85.00 307.50 L 85.00 300.00 L 80.00 300.00 L 75.00 300.00 L 75.00 307.50 L 75.00 315.00 L 67.50 315.00 L 60.00 315.00 L 60.00 307.50 L 60.00 300.00 L 52.50 300.00 L 45.00 300.00 L 45.00 292.50 L 45.00 285.00 L 37.50 285.00 L 30.00 285.00 L 30.00 277.50 L 30.00 270.00 L 22.50 270.00 L 15.00 270.00 L 15.00 277.50 L 15.00 285.00 L 22.50 285.00 L 30.00 285.00 L 30.00 292.50 L 30.00 300.00 L 22.50 300.00 L 15.00 300.00 L 15.00 307.50 L 15.00 315.00 L 22.50 315.00 L 30.00 315.00 L 30.00 322.50 L 30.00 330.00 L 22.50 330.00 L 15.00 330.00 L 15.00 337.50 L 15.00 345.00 L 22.50 345.00 L 30.00 345.00 L 30.00 352.50 L 30.00 360.00 L 37.50 360.00 L 45.00 360.00 L 45.00 352.50 ZM 119.80 361.80 C120.46,361.14 121.09,357.88 121.19,354.55 L 121.38 348.50 L 121.74 354.25 L 122.10 360.00 L 128.55 360.00 L 135.00 360.00 L 135.00 352.50 L 135.00 345.00 L 128.03 345.00 C122.87,345.00 121.19,345.32 121.54,346.25 C121.92,347.21 120.02,347.39 113.27,347.00 C105.46,346.55 104.49,346.29 104.28,344.50 C104.14,343.40 104.29,343.06 104.60,343.75 C104.98,344.59 107.62,345.00 112.58,345.00 L 120.00 345.00 L 120.00 338.50 C120.00,333.98 119.62,331.99 118.75,331.97 C118.06,331.95 118.28,331.49 119.25,330.92 C120.71,330.07 121.00,328.42 121.00,320.95 L 121.00 312.00 L 128.00 312.00 C133.56,312.00 135.00,312.31 135.00,313.50 C135.00,314.70 136.50,315.00 142.50,315.00 L 150.00 315.00 L 150.00 307.50 L 150.00 300.00 L 143.55 300.00 L 137.11 300.00 L 136.74 304.75 C136.45,308.37 136.32,307.78 136.18,302.25 L 136.00 295.00 L 147.00 295.00 L 158.00 295.00 L 158.00 303.50 L 158.00 312.00 L 167.25 312.19 C173.94,312.33 174.91,312.48 170.75,312.74 C167.59,312.94 165.00,313.53 165.00,314.05 C165.00,314.57 161.62,315.00 157.50,315.00 L 150.00 315.00 L 150.00 322.50 L 150.00 330.00 L 157.50 330.00 L 165.00 330.00 L 165.00 322.50 C165.00,315.27 165.09,315.00 167.38,315.00 C168.68,315.00 171.16,314.72 172.88,314.38 L 176.00 313.75 L 176.00 321.88 L 176.00 330.00 L 170.50 330.00 L 165.00 330.00 L 165.00 337.50 L 165.00 345.00 L 170.50 345.00 L 176.00 345.00 L 176.00 352.50 L 176.00 360.00 L 170.50 360.00 C166.28,360.00 165.00,360.35 165.00,361.50 C165.00,362.70 163.50,363.00 157.50,363.00 C151.50,363.00 150.00,362.70 150.00,361.50 C150.00,360.30 148.50,360.00 142.50,360.00 C136.50,360.00 135.00,360.30 135.00,361.50 C135.00,362.71 133.42,363.00 126.80,363.00 C120.42,363.00 118.87,362.73 119.80,361.80 ZM 165.00 352.50 L 165.00 345.00 L 157.50 345.00 L 150.00 345.00 L 150.00 337.50 L 150.00 330.00 L 142.50 330.00 L 135.00 330.00 L 135.00 322.50 L 135.00 315.00 L 128.50 315.00 L 122.00 315.00 L 122.00 322.50 L 122.00 330.00 L 128.50 330.00 L 135.00 330.00 L 135.00 337.50 L 135.00 345.00 L 142.50 345.00 L 150.00 345.00 L 150.00 352.50 L 150.00 360.00 L 157.50 360.00 L 165.00 360.00 L 165.00 352.50 ZM 156.00 298.00 C156.00,296.44 155.33,296.00 153.00,296.00 C150.67,296.00 150.00,296.44 150.00,298.00 C150.00,299.56 150.67,300.00 153.00,300.00 C155.33,300.00 156.00,299.56 156.00,298.00 ZM 210.00 361.50 C210.00,360.30 211.50,360.00 217.50,360.00 L 225.00 360.00 L 225.00 352.50 L 225.00 345.00 L 217.50 345.00 L 210.00 345.00 L 210.00 352.44 C210.00,356.53 209.55,360.16 209.00,360.50 C208.37,360.89 208.00,358.68 208.00,354.56 L 208.00 348.00 L 201.43 348.00 C190.12,348.00 191.00,351.00 191.00,312.46 L 191.00 279.00 L 196.75 279.17 C201.02,279.29 201.53,279.44 198.75,279.73 C195.55,280.06 195.00,280.48 195.00,282.56 C195.00,284.06 194.42,285.00 193.50,285.00 C192.30,285.00 192.00,286.50 192.00,292.50 C192.00,298.50 192.30,300.00 193.50,300.00 C194.70,300.00 195.00,301.50 195.00,307.50 C195.00,313.50 194.70,315.00 193.50,315.00 C192.30,315.00 192.00,316.50 192.00,322.50 C192.00,328.50 192.30,330.00 193.50,330.00 C194.70,330.00 195.00,331.50 195.00,337.50 L 195.00 345.00 L 202.50 345.00 L 210.00 345.00 L 210.00 337.50 L 210.00 330.00 L 202.50 330.00 L 195.00 330.00 L 195.00 322.50 L 195.00 315.00 L 202.50 315.00 L 210.00 315.00 L 210.00 307.50 L 210.00 300.00 L 202.50 300.00 L 195.00 300.00 L 195.00 292.50 L 195.00 285.00 L 202.50 285.00 L 210.00 285.00 L 210.00 277.50 L 210.00 270.00 L 217.61 270.00 L 225.22 270.00 L 224.79 261.28 C224.55,256.49 224.54,253.11 224.76,253.78 C225.03,254.59 227.64,255.00 232.58,255.00 L 240.00 255.00 L 240.00 247.50 L 240.00 240.00 L 247.50 240.00 L 255.00 240.00 L 255.00 232.50 L 255.00 225.00 L 249.06 225.00 L 243.13 225.00 L 242.72 228.25 C242.50,230.04 242.25,219.46 242.16,204.75 L 242.00 178.00 L 252.08 178.00 L 262.15 178.00 L 261.83 185.99 C261.45,195.21 261.17,194.92 270.83,195.17 C274.96,195.27 276.07,195.49 273.75,195.73 L 270.00 196.12 L 270.00 203.06 L 270.00 210.00 L 277.50 210.00 L 285.00 210.00 L 285.00 202.50 C285.00,195.17 284.94,195.00 282.50,195.00 C280.06,195.00 280.00,194.82 280.00,187.67 C280.00,183.63 280.25,180.08 280.56,179.78 C280.86,179.47 281.99,179.45 283.06,179.73 C284.76,180.17 285.00,181.15 285.00,187.62 L 285.00 195.00 L 292.50 195.00 L 300.00 195.00 L 300.00 187.50 L 300.00 180.00 L 292.50 180.00 L 285.00 180.00 L 285.00 172.50 L 285.00 165.00 L 292.50 165.00 L 300.00 165.00 L 300.00 157.50 L 300.00 150.00 L 292.50 150.00 L 285.00 150.00 L 285.00 157.38 C285.00,163.85 284.76,164.83 283.06,165.27 C280.56,165.93 280.00,165.30 280.00,161.83 C280.00,159.04 279.92,159.00 274.00,159.00 C270.67,159.00 268.00,158.56 268.00,158.00 C268.00,157.45 268.45,157.00 269.00,157.00 C269.55,157.00 270.00,155.43 270.00,153.50 L 270.00 150.00 L 262.50 150.00 L 255.00 150.00 L 255.00 153.50 C255.00,155.43 255.45,157.00 256.00,157.00 C256.55,157.00 257.00,157.45 257.00,158.00 C257.00,158.56 254.33,159.00 251.00,159.00 L 245.00 159.00 L 245.00 142.03 L 245.00 125.05 L 280.00 124.78 L 315.00 124.50 L 315.00 129.75 L 315.00 135.00 L 322.50 135.00 L 330.00 135.00 L 330.00 127.50 L 330.00 120.00 L 323.08 120.00 C318.49,120.00 316.00,120.42 315.66,121.25 C315.38,121.94 315.12,119.92 315.08,116.77 L 315.00 111.03 L 288.75 110.77 L 262.50 110.50 L 262.21 101.77 L 261.92 93.04 L 304.96 92.77 C328.63,92.62 348.00,92.84 348.00,93.25 C348.00,93.66 347.33,94.00 346.50,94.00 C345.35,94.00 345.00,95.28 345.00,99.50 C345.00,103.72 345.35,105.00 346.50,105.00 C347.70,105.00 348.00,106.50 348.00,112.50 C348.00,118.50 347.70,120.00 346.50,120.00 C345.30,120.00 345.00,121.50 345.00,127.50 C345.00,133.50 345.30,135.00 346.50,135.00 C347.70,135.00 348.00,136.50 348.00,142.50 C348.00,148.50 347.70,150.00 346.50,150.00 C345.30,150.00 345.00,151.50 345.00,157.50 C345.00,163.50 345.30,165.00 346.50,165.00 C347.70,165.00 348.00,166.50 348.00,172.50 C348.00,178.50 347.70,180.00 346.50,180.00 C345.30,180.00 345.00,181.50 345.00,187.50 C345.00,193.50 345.30,195.00 346.50,195.00 C347.70,195.00 348.00,196.50 348.00,202.50 C348.00,208.50 347.70,210.00 346.50,210.00 C345.30,210.00 345.00,211.50 345.00,217.50 C345.00,223.50 345.30,225.00 346.50,225.00 C347.70,225.00 348.00,226.50 348.00,232.50 C348.00,238.50 347.70,240.00 346.50,240.00 C345.30,240.00 345.00,241.50 345.00,247.50 C345.00,253.50 345.30,255.00 346.50,255.00 C347.70,255.00 348.00,256.50 348.00,262.50 C348.00,268.50 347.70,270.00 346.50,270.00 C345.30,270.00 345.00,271.50 345.00,277.50 C345.00,283.50 345.30,285.00 346.50,285.00 C347.70,285.00 348.00,286.50 348.00,292.50 C348.00,298.50 347.70,300.00 346.50,300.00 C345.30,300.00 345.00,301.50 345.00,307.50 C345.00,313.50 345.30,315.00 346.50,315.00 C347.70,315.00 348.00,316.50 348.00,322.50 C348.00,328.50 347.70,330.00 346.50,330.00 C345.30,330.00 345.00,331.50 345.00,337.50 C345.00,343.50 345.30,345.00 346.50,345.00 C347.70,345.00 348.00,346.50 348.00,352.50 C348.00,358.50 347.70,360.00 346.50,360.00 C345.67,360.00 345.00,360.67 345.00,361.50 C345.00,362.70 343.50,363.00 337.50,363.00 C331.50,363.00 330.00,362.70 330.00,361.50 C330.00,360.30 328.50,360.00 322.50,360.00 C316.50,360.00 315.00,360.30 315.00,361.50 C315.00,362.70 313.50,363.00 307.50,363.00 C301.50,363.00 300.00,362.70 300.00,361.50 C300.00,360.30 298.50,360.00 292.50,360.00 C286.50,360.00 285.00,360.30 285.00,361.50 C285.00,362.70 283.50,363.00 277.50,363.00 C271.50,363.00 270.00,362.70 270.00,361.50 C270.00,360.30 268.50,360.00 262.50,360.00 C256.50,360.00 255.00,360.30 255.00,361.50 C255.00,362.70 253.50,363.00 247.50,363.00 C241.50,363.00 240.00,362.70 240.00,361.50 C240.00,360.30 238.50,360.00 232.50,360.00 C226.50,360.00 225.00,360.30 225.00,361.50 C225.00,362.70 223.50,363.00 217.50,363.00 C211.50,363.00 210.00,362.70 210.00,361.50 ZM 255.00 352.50 L 255.00 345.00 L 262.50 345.00 L 270.00 345.00 L 270.00 352.50 L 270.00 360.00 L 277.50 360.00 L 285.00 360.00 L 285.00 352.50 L 285.00 345.00 L 292.50 345.00 L 300.00 345.00 L 300.00 352.50 L 300.00 360.00 L 307.50 360.00 L 315.00 360.00 L 315.00 352.50 L 315.00 345.00 L 322.50 345.00 L 330.00 345.00 L 330.00 352.50 L 330.00 360.00 L 337.50 360.00 L 345.00 360.00 L 345.00 352.50 L 345.00 345.00 L 337.50 345.00 L 330.00 345.00 L 330.00 337.50 L 330.00 330.00 L 337.50 330.00 L 345.00 330.00 L 345.00 322.50 L 345.00 315.00 L 337.50 315.00 L 330.00 315.00 L 330.00 307.50 L 330.00 300.00 L 337.50 300.00 L 345.00 300.00 L 345.00 292.50 L 345.00 285.00 L 337.50 285.00 L 330.00 285.00 L 330.00 277.50 L 330.00 270.00 L 337.50 270.00 L 345.00 270.00 L 345.00 262.50 L 345.00 255.00 L 337.50 255.00 L 330.00 255.00 L 330.00 247.50 L 330.00 240.00 L 337.50 240.00 L 345.00 240.00 L 345.00 232.50 L 345.00 225.00 L 337.50 225.00 L 330.00 225.00 L 330.00 217.50 L 330.00 210.00 L 337.50 210.00 L 345.00 210.00 L 345.00 202.50 L 345.00 195.00 L 337.50 195.00 L 330.00 195.00 L 330.00 187.50 L 330.00 180.00 L 337.50 180.00 L 345.00 180.00 L 345.00 172.50 L 345.00 165.00 L 337.50 165.00 L 330.00 165.00 L 330.00 157.50 L 330.00 150.00 L 337.50 150.00 L 345.00 150.00 L 345.00 142.50 L 345.00 135.00 L 337.50 135.00 L 330.00 135.00 L 330.00 142.50 L 330.00 150.00 L 322.50 150.00 L 315.00 150.00 L 315.00 142.50 L 315.00 135.00 L 307.50 135.00 L 300.00 135.00 L 300.00 130.50 L 300.00 126.00 L 292.50 126.00 L 285.00 126.00 L 285.00 130.50 L 285.00 135.00 L 277.50 135.00 L 270.00 135.00 L 270.00 130.50 L 270.00 126.00 L 262.50 126.00 L 255.00 126.00 L 255.00 130.50 L 255.00 135.00 L 250.50 135.00 L 246.00 135.00 L 246.00 142.50 L 246.00 150.00 L 250.50 150.00 L 255.00 150.00 L 255.00 142.50 L 255.00 135.00 L 262.50 135.00 L 270.00 135.00 L 270.00 142.50 L 270.00 150.00 L 277.50 150.00 L 285.00 150.00 L 285.00 142.50 L 285.00 135.00 L 292.50 135.00 L 300.00 135.00 L 300.00 142.50 L 300.00 150.00 L 307.50 150.00 L 315.00 150.00 L 315.00 157.50 L 315.00 165.00 L 307.50 165.00 L 300.00 165.00 L 300.00 172.50 L 300.00 180.00 L 307.50 180.00 L 315.00 180.00 L 315.00 187.50 L 315.00 195.00 L 307.50 195.00 L 300.00 195.00 L 300.00 202.50 L 300.00 210.00 L 292.50 210.00 L 285.00 210.00 L 285.00 217.50 L 285.00 225.00 L 277.50 225.00 L 270.00 225.00 L 270.00 217.50 L 270.00 210.00 L 262.50 210.00 L 255.00 210.00 L 255.00 202.50 L 255.00 195.00 L 257.85 195.00 L 260.71 195.00 L 260.91 187.50 L 261.11 180.00 L 258.05 180.00 L 255.00 180.00 L 255.00 187.50 L 255.00 195.00 L 249.00 195.00 L 243.00 195.00 L 243.00 202.50 L 243.00 210.00 L 249.00 210.00 L 255.00 210.00 L 255.00 217.50 L 255.00 225.00 L 262.50 225.00 L 270.00 225.00 L 270.00 232.50 L 270.00 240.00 L 262.50 240.00 L 255.00 240.00 L 255.00 247.50 L 255.00 255.00 L 247.50 255.00 L 240.00 255.00 L 240.00 262.50 L 240.00 270.00 L 232.50 270.00 L 225.00 270.00 L 225.00 277.50 L 225.00 285.00 L 217.50 285.00 L 210.00 285.00 L 210.00 292.50 L 210.00 300.00 L 217.50 300.00 L 225.00 300.00 L 225.00 307.50 L 225.00 315.00 L 217.50 315.00 L 210.00 315.00 L 210.00 322.50 L 210.00 330.00 L 217.50 330.00 L 225.00 330.00 L 225.00 337.50 L 225.00 345.00 L 232.50 345.00 L 240.00 345.00 L 240.00 352.50 L 240.00 360.00 L 247.50 360.00 L 255.00 360.00 L 255.00 352.50 ZM 345.00 112.50 L 345.00 105.00 L 337.50 105.00 L 330.00 105.00 L 330.00 99.50 L 330.00 94.00 L 322.50 94.00 L 315.00 94.00 L 315.00 99.50 L 315.00 105.00 L 307.50 105.00 L 300.00 105.00 L 300.00 99.50 L 300.00 94.00 L 292.50 94.00 L 285.00 94.00 L 285.00 99.50 L 285.00 105.00 L 277.50 105.00 L 270.00 105.00 L 270.00 99.50 L 270.00 94.00 L 266.50 94.00 L 263.00 94.00 L 263.00 99.50 L 263.00 105.00 L 266.50 105.00 C269.33,105.00 270.00,105.38 270.00,107.00 C270.00,108.82 270.67,109.00 277.50,109.00 C284.33,109.00 285.00,108.82 285.00,107.00 C285.00,105.18 285.67,105.00 292.50,105.00 C299.33,105.00 300.00,105.18 300.00,107.00 C300.00,108.82 300.67,109.00 307.50,109.00 C314.33,109.00 315.00,108.82 315.00,107.00 C315.00,105.18 315.67,105.00 322.50,105.00 L 330.00 105.00 L 330.00 112.50 L 330.00 120.00 L 337.50 120.00 L 345.00 120.00 L 345.00 112.50 ZM 206.55 268.42 C205.76,264.18 206.62,261.00 208.57,261.00 C210.48,261.00 210.51,268.63 208.60,270.54 C207.41,271.73 207.11,271.43 206.55,268.42 ZM 18.18 241.25 C18.08,240.56 17.33,240.00 16.50,240.00 C15.32,240.00 15.00,238.62 15.00,233.58 C15.00,229.39 14.57,226.99 13.75,226.66 C13.06,226.38 13.91,226.12 15.64,226.08 C19.45,225.98 19.66,226.60 18.93,235.50 C18.61,239.35 18.27,241.94 18.18,241.25 ZM 224.66 240.17 C224.85,239.44 225.00,238.20 225.00,237.42 C225.00,236.31 226.75,236.00 232.91,236.00 C240.32,236.00 240.78,236.12 240.29,238.00 C239.83,239.77 238.93,240.00 232.47,240.00 C228.45,240.00 224.98,240.34 224.75,240.75 C224.52,241.16 224.48,240.90 224.66,240.17 ZM 50.00 188.02 C50.00,181.56 49.71,180.00 48.50,180.00 C47.67,180.00 47.00,179.55 47.00,179.00 C47.00,178.45 45.99,177.96 44.75,177.92 C43.51,177.88 43.06,177.62 43.75,177.34 C44.55,177.01 45.00,174.71 45.00,170.92 L 45.00 165.00 L 39.00 165.00 L 33.00 165.00 L 33.00 171.00 C33.00,174.56 33.43,177.00 34.06,177.00 C34.64,177.00 34.84,177.45 34.50,178.00 C32.86,180.66 32.00,178.28 32.00,171.04 L 32.00 163.08 L 24.25 162.79 L 16.50 162.50 L 16.39 146.00 C16.32,136.93 16.47,130.74 16.70,132.25 C17.12,134.92 17.32,135.00 23.57,135.00 L 30.00 135.00 L 30.00 127.50 L 30.00 120.00 L 22.50 120.00 L 15.00 120.00 L 15.00 123.50 L 15.00 127.00 L 9.50 127.00 C6.47,127.00 4.00,127.45 4.00,128.00 C4.00,128.55 3.10,129.00 2.00,129.00 C0.30,129.00 0.00,128.33 0.00,124.50 L 0.00 120.00 L 7.50 120.00 L 15.00 120.00 L 15.00 112.50 L 15.00 105.00 L 7.50 105.00 L 0.00 105.00 L 0.00 97.50 L 0.00 90.00 L 7.50 90.00 L 15.00 90.00 L 15.00 82.50 L 15.00 75.00 L 7.50 75.00 L 0.00 75.00 L 0.00 67.50 L 0.00 60.00 L 7.50 60.00 L 15.00 60.00 L 15.00 52.50 L 15.00 45.00 L 7.50 45.00 L 0.00 45.00 L 0.00 37.50 L 0.00 30.00 L 7.50 30.00 L 15.00 30.00 L 15.00 22.50 L 15.00 15.00 L 7.50 15.00 L 0.00 15.00 L 0.00 7.50 L 0.00 0.00 L 7.50 0.00 L 15.00 0.00 L 15.00 7.50 L 15.00 15.00 L 22.50 15.00 L 30.00 15.00 L 30.00 7.50 L 30.00 0.00 L 37.50 0.00 L 45.00 0.00 L 45.00 7.50 L 45.00 15.00 L 52.50 15.00 L 60.00 15.00 L 60.00 7.50 L 60.00 0.00 L 67.50 0.00 L 75.00 0.00 L 75.00 7.50 L 75.00 15.00 L 82.50 15.00 L 90.00 15.00 L 90.00 7.50 L 90.00 0.00 L 97.50 0.00 L 105.00 0.00 L 105.00 7.50 L 105.00 15.00 L 112.50 15.00 L 120.00 15.00 L 120.00 7.50 L 120.00 0.00 L 127.50 0.00 L 135.00 0.00 L 135.00 7.50 L 135.00 15.00 L 142.50 15.00 L 150.00 15.00 L 150.00 7.50 L 150.00 0.00 L 157.50 0.00 L 165.00 0.00 L 165.00 7.50 L 165.00 15.00 L 172.50 15.00 C178.50,15.00 180.00,15.30 180.00,16.50 C180.00,17.33 179.32,18.00 178.50,18.00 C177.18,18.00 177.00,24.78 177.00,73.00 C177.00,109.00 176.65,128.00 176.00,128.00 C175.45,128.00 175.00,126.20 175.00,124.00 L 175.00 120.00 L 170.00 120.00 L 165.00 120.00 L 165.00 124.00 C165.00,126.20 165.45,128.00 166.00,128.00 C166.55,128.00 167.00,128.45 167.00,129.00 C167.00,129.55 164.99,130.00 162.54,130.00 L 158.09 130.00 L 157.79 137.25 L 157.50 144.50 L 146.03 144.50 L 134.57 144.50 L 134.86 139.75 L 135.15 135.00 L 127.58 135.00 L 120.00 135.00 L 120.00 142.50 L 120.00 150.00 L 127.05 150.00 L 134.10 150.00 L 133.80 156.25 L 133.50 162.50 L 121.25 162.78 C113.32,162.96 109.00,162.70 109.00,162.03 C109.00,161.45 111.39,161.00 114.50,161.00 L 120.00 161.00 L 120.00 155.50 L 120.00 150.00 L 112.50 150.00 L 105.00 150.00 L 105.00 155.50 C105.00,158.63 105.45,161.00 106.04,161.00 C106.70,161.00 106.97,164.34 106.79,170.25 L 106.50 179.50 L 96.50 180.00 L 86.50 180.50 L 86.50 188.00 L 86.50 195.50 L 68.25 195.77 L 50.00 196.05 L 50.00 188.02 ZM 60.00 187.00 L 60.00 180.00 L 67.50 180.00 L 75.00 180.00 L 75.00 187.00 L 75.00 194.00 L 80.00 194.00 L 85.00 194.00 L 85.00 187.00 L 85.00 180.00 L 80.00 180.00 L 75.00 180.00 L 75.00 172.50 L 75.00 165.00 L 82.50 165.00 L 90.00 165.00 L 90.00 171.50 L 90.00 178.00 L 97.34 178.00 L 104.68 178.00 L 104.90 171.50 L 105.11 165.00 L 97.55 165.00 L 90.00 165.00 L 90.00 157.50 L 90.00 150.00 L 97.50 150.00 L 105.00 150.00 L 105.00 142.50 L 105.00 135.00 L 112.50 135.00 L 120.00 135.00 L 120.00 127.50 L 120.00 120.00 L 127.50 120.00 L 135.00 120.00 L 135.00 127.50 L 135.00 135.00 L 142.50 135.00 L 150.00 135.00 L 150.00 139.00 C150.00,142.78 150.17,143.00 153.00,143.00 C155.83,143.00 156.00,142.78 156.00,139.00 C156.00,135.22 155.83,135.00 153.00,135.00 L 150.00 135.00 L 150.00 127.50 L 150.00 120.00 L 157.50 120.00 L 165.00 120.00 L 165.00 112.50 L 165.00 105.00 L 170.00 105.00 L 175.00 105.00 L 175.00 97.50 L 175.00 90.00 L 170.00 90.00 L 165.00 90.00 L 165.00 82.50 L 165.00 75.00 L 170.00 75.00 L 175.00 75.00 L 175.00 67.50 L 175.00 60.00 L 170.00 60.00 L 165.00 60.00 L 165.00 52.50 L 165.00 45.00 L 170.00 45.00 L 175.00 45.00 L 175.00 37.50 L 175.00 30.00 L 170.00 30.00 L 165.00 30.00 L 165.00 22.50 L 165.00 15.00 L 157.50 15.00 L 150.00 15.00 L 150.00 22.50 L 150.00 30.00 L 142.50 30.00 L 135.00 30.00 L 135.00 22.50 L 135.00 15.00 L 127.50 15.00 L 120.00 15.00 L 120.00 22.50 L 120.00 30.00 L 112.50 30.00 L 105.00 30.00 L 105.00 22.50 L 105.00 15.00 L 97.50 15.00 L 90.00 15.00 L 90.00 22.50 L 90.00 30.00 L 82.50 30.00 L 75.00 30.00 L 75.00 22.50 L 75.00 15.00 L 67.50 15.00 L 60.00 15.00 L 60.00 22.50 L 60.00 30.00 L 52.50 30.00 L 45.00 30.00 L 45.00 22.50 L 45.00 15.00 L 37.50 15.00 L 30.00 15.00 L 30.00 22.50 L 30.00 30.00 L 22.50 30.00 L 15.00 30.00 L 15.00 37.50 L 15.00 45.00 L 22.50 45.00 L 30.00 45.00 L 30.00 52.50 L 30.00 60.00 L 22.50 60.00 L 15.00 60.00 L 15.00 67.50 L 15.00 75.00 L 22.50 75.00 L 30.00 75.00 L 30.00 82.50 L 30.00 90.00 L 22.50 90.00 L 15.00 90.00 L 15.00 97.50 L 15.00 105.00 L 22.50 105.00 L 30.00 105.00 L 30.00 112.50 L 30.00 120.00 L 37.50 120.00 L 45.00 120.00 L 45.00 127.50 L 45.00 135.00 L 37.50 135.00 L 30.00 135.00 L 30.00 142.50 L 30.00 150.00 L 23.50 150.00 L 17.00 150.00 L 17.00 155.50 L 17.00 161.00 L 23.50 161.00 L 30.00 161.00 L 30.00 155.50 L 30.00 150.00 L 37.50 150.00 L 45.00 150.00 L 45.00 157.50 L 45.00 165.00 L 52.50 165.00 L 60.00 165.00 L 60.00 172.50 L 60.00 180.00 L 55.50 180.00 L 51.00 180.00 L 51.00 187.00 L 51.00 194.00 L 55.50 194.00 L 60.00 194.00 L 60.00 187.00 ZM 207.00 34.50 L 207.00 25.00 L 218.50 25.00 L 230.00 25.00 L 230.00 34.50 L 230.00 44.00 L 218.50 44.00 L 207.00 44.00 L 207.00 34.50 ZM 345.08 17.00 C345.02,15.82 343.70,15.53 338.95,15.66 C335.63,15.75 332.25,16.07 331.45,16.38 C330.25,16.84 330.00,15.46 330.00,8.47 L 330.00 0.00 L 337.50 0.00 L 345.00 0.00 L 345.00 7.39 C345.00,13.04 345.35,14.92 346.50,15.36 C347.33,15.68 347.99,16.51 347.98,17.22 C347.97,18.20 347.77,18.18 347.11,17.14 C346.38,15.99 346.16,15.99 345.70,17.14 C345.27,18.21 345.14,18.18 345.08,17.00 ZM 187.00 16.00 L 180.50 15.50 L 180.21 7.75 L 179.92 0.00 L 187.46 0.00 L 195.00 0.00 L 194.98 7.25 C194.98,11.24 194.64,14.95 194.23,15.50 C193.81,16.08 190.79,16.29 187.00,16.00 ZM 30.00 337.50 L 30.00 330.00 L 37.50 330.00 L 45.00 330.00 L 45.00 322.50 L 45.00 315.00 L 37.50 315.00 L 30.00 315.00 L 30.00 307.50 L 30.00 300.00 L 37.50 300.00 L 45.00 300.00 L 45.00 307.50 L 45.00 315.00 L 52.50 315.00 L 60.00 315.00 L 60.00 322.50 L 60.00 330.00 L 67.50 330.00 L 75.00 330.00 L 75.00 337.50 L 75.00 345.00 L 67.50 345.00 L 60.00 345.00 L 60.00 337.50 L 60.00 330.00 L 52.50 330.00 L 45.00 330.00 L 45.00 337.50 L 45.00 345.00 L 37.50 345.00 L 30.00 345.00 L 30.00 337.50 ZM 240.00 337.50 L 240.00 330.00 L 232.50 330.00 L 225.00 330.00 L 225.00 322.50 L 225.00 315.00 L 232.50 315.00 L 240.00 315.00 L 240.00 307.50 L 240.00 300.00 L 232.50 300.00 L 225.00 300.00 L 225.00 292.50 L 225.00 285.00 L 232.50 285.00 L 240.00 285.00 L 240.00 277.50 L 240.00 270.00 L 247.50 270.00 L 255.00 270.00 L 255.00 262.50 L 255.00 255.00 L 262.50 255.00 L 270.00 255.00 L 270.00 247.50 L 270.00 240.00 L 277.50 240.00 L 285.00 240.00 L 285.00 232.50 L 285.00 225.00 L 292.50 225.00 L 300.00 225.00 L 300.00 217.50 L 300.00 210.00 L 307.50 210.00 L 315.00 210.00 L 315.00 202.50 L 315.00 195.00 L 322.50 195.00 L 330.00 195.00 L 330.00 202.50 L 330.00 210.00 L 322.50 210.00 L 315.00 210.00 L 315.00 217.50 L 315.00 225.00 L 322.50 225.00 L 330.00 225.00 L 330.00 232.50 L 330.00 240.00 L 322.50 240.00 L 315.00 240.00 L 315.00 247.50 L 315.00 255.00 L 322.50 255.00 L 330.00 255.00 L 330.00 262.50 L 330.00 270.00 L 322.50 270.00 L 315.00 270.00 L 315.00 277.50 L 315.00 285.00 L 322.50 285.00 L 330.00 285.00 L 330.00 292.50 L 330.00 300.00 L 322.50 300.00 L 315.00 300.00 L 315.00 307.50 L 315.00 315.00 L 322.50 315.00 L 330.00 315.00 L 330.00 322.50 L 330.00 330.00 L 322.50 330.00 L 315.00 330.00 L 315.00 337.50 L 315.00 345.00 L 307.50 345.00 L 300.00 345.00 L 300.00 337.50 L 300.00 330.00 L 292.50 330.00 L 285.00 330.00 L 285.00 337.50 L 285.00 345.00 L 277.50 345.00 L 270.00 345.00 L 270.00 337.50 L 270.00 330.00 L 262.50 330.00 L 255.00 330.00 L 255.00 337.50 L 255.00 345.00 L 247.50 345.00 L 240.00 345.00 L 240.00 337.50 ZM 255.00 322.50 L 255.00 315.00 L 262.50 315.00 L 270.00 315.00 L 270.00 322.50 L 270.00 330.00 L 277.50 330.00 L 285.00 330.00 L 285.00 322.50 L 285.00 315.00 L 292.50 315.00 L 300.00 315.00 L 300.00 322.50 L 300.00 330.00 L 307.50 330.00 L 315.00 330.00 L 315.00 322.50 L 315.00 315.00 L 307.50 315.00 L 300.00 315.00 L 300.00 307.50 L 300.00 300.00 L 307.50 300.00 L 315.00 300.00 L 315.00 292.50 L 315.00 285.00 L 307.50 285.00 L 300.00 285.00 L 300.00 277.50 L 300.00 270.00 L 307.50 270.00 L 315.00 270.00 L 315.00 262.50 L 315.00 255.00 L 307.50 255.00 L 300.00 255.00 L 300.00 247.50 L 300.00 240.00 L 307.50 240.00 L 315.00 240.00 L 315.00 232.50 L 315.00 225.00 L 307.50 225.00 L 300.00 225.00 L 300.00 232.50 L 300.00 240.00 L 292.50 240.00 L 285.00 240.00 L 285.00 247.50 L 285.00 255.00 L 277.50 255.00 L 270.00 255.00 L 270.00 262.50 L 270.00 270.00 L 262.50 270.00 L 255.00 270.00 L 255.00 277.50 L 255.00 285.00 L 247.50 285.00 L 240.00 285.00 L 240.00 292.50 L 240.00 300.00 L 247.50 300.00 L 255.00 300.00 L 255.00 307.50 L 255.00 315.00 L 247.50 315.00 L 240.00 315.00 L 240.00 322.50 L 240.00 330.00 L 247.50 330.00 L 255.00 330.00 L 255.00 322.50 ZM 315.00 172.50 L 315.00 165.00 L 322.50 165.00 L 330.00 165.00 L 330.00 172.50 L 330.00 180.00 L 322.50 180.00 L 315.00 180.00 L 315.00 172.50 ZM 60.00 157.50 L 60.00 150.00 L 52.50 150.00 L 45.00 150.00 L 45.00 142.50 L 45.00 135.00 L 52.50 135.00 L 60.00 135.00 L 60.00 127.50 L 60.00 120.00 L 52.50 120.00 L 45.00 120.00 L 45.00 112.50 L 45.00 105.00 L 37.50 105.00 L 30.00 105.00 L 30.00 97.50 L 30.00 90.00 L 37.50 90.00 L 45.00 90.00 L 45.00 82.50 L 45.00 75.00 L 37.50 75.00 L 30.00 75.00 L 30.00 67.50 L 30.00 60.00 L 37.50 60.00 L 45.00 60.00 L 45.00 52.50 L 45.00 45.00 L 37.50 45.00 L 30.00 45.00 L 30.00 37.50 L 30.00 30.00 L 37.50 30.00 L 45.00 30.00 L 45.00 37.50 L 45.00 45.00 L 52.50 45.00 L 60.00 45.00 L 60.00 37.50 L 60.00 30.00 L 67.50 30.00 L 75.00 30.00 L 75.00 37.50 L 75.00 45.00 L 82.50 45.00 L 90.00 45.00 L 90.00 37.50 L 90.00 30.00 L 97.50 30.00 L 105.00 30.00 L 105.00 37.50 L 105.00 45.00 L 112.50 45.00 L 120.00 45.00 L 120.00 37.50 L 120.00 30.00 L 127.50 30.00 L 135.00 30.00 L 135.00 37.50 L 135.00 45.00 L 142.50 45.00 L 150.00 45.00 L 150.00 37.50 L 150.00 30.00 L 157.50 30.00 L 165.00 30.00 L 165.00 37.50 L 165.00 45.00 L 157.50 45.00 L 150.00 45.00 L 150.00 52.50 L 150.00 60.00 L 157.50 60.00 L 165.00 60.00 L 165.00 67.50 L 165.00 75.00 L 157.50 75.00 L 150.00 75.00 L 150.00 82.50 L 150.00 90.00 L 157.50 90.00 L 165.00 90.00 L 165.00 97.50 L 165.00 105.00 L 157.50 105.00 L 150.00 105.00 L 150.00 112.50 L 150.00 120.00 L 142.50 120.00 L 135.00 120.00 L 135.00 112.50 L 135.00 105.00 L 127.50 105.00 L 120.00 105.00 L 120.00 112.50 L 120.00 120.00 L 112.50 120.00 L 105.00 120.00 L 105.00 127.50 L 105.00 135.00 L 97.50 135.00 L 90.00 135.00 L 90.00 142.50 L 90.00 150.00 L 82.50 150.00 L 75.00 150.00 L 75.00 157.50 L 75.00 165.00 L 67.50 165.00 L 60.00 165.00 L 60.00 157.50 ZM 75.00 142.50 L 75.00 135.00 L 82.50 135.00 L 90.00 135.00 L 90.00 127.50 L 90.00 120.00 L 97.50 120.00 L 105.00 120.00 L 105.00 112.50 L 105.00 105.00 L 112.50 105.00 L 120.00 105.00 L 120.00 97.50 L 120.00 90.00 L 127.50 90.00 L 135.00 90.00 L 135.00 97.50 L 135.00 105.00 L 142.50 105.00 L 150.00 105.00 L 150.00 97.50 L 150.00 90.00 L 142.50 90.00 L 135.00 90.00 L 135.00 82.50 L 135.00 75.00 L 142.50 75.00 L 150.00 75.00 L 150.00 67.50 L 150.00 60.00 L 142.50 60.00 L 135.00 60.00 L 135.00 52.50 L 135.00 45.00 L 127.50 45.00 L 120.00 45.00 L 120.00 52.50 L 120.00 60.00 L 112.50 60.00 L 105.00 60.00 L 105.00 52.50 L 105.00 45.00 L 97.50 45.00 L 90.00 45.00 L 90.00 52.50 L 90.00 60.00 L 82.50 60.00 L 75.00 60.00 L 75.00 52.50 L 75.00 45.00 L 67.50 45.00 L 60.00 45.00 L 60.00 52.50 L 60.00 60.00 L 52.50 60.00 L 45.00 60.00 L 45.00 67.50 L 45.00 75.00 L 52.50 75.00 L 60.00 75.00 L 60.00 82.50 L 60.00 90.00 L 52.50 90.00 L 45.00 90.00 L 45.00 97.50 L 45.00 105.00 L 52.50 105.00 L 60.00 105.00 L 60.00 112.50 L 60.00 120.00 L 67.50 120.00 L 75.00 120.00 L 75.00 127.50 L 75.00 135.00 L 67.50 135.00 L 60.00 135.00 L 60.00 142.50 L 60.00 150.00 L 67.50 150.00 L 75.00 150.00 L 75.00 142.50 ZM 270.00 307.50 L 270.00 300.00 L 262.50 300.00 L 255.00 300.00 L 255.00 292.50 L 255.00 285.00 L 262.50 285.00 L 270.00 285.00 L 270.00 277.50 L 270.00 270.00 L 277.50 270.00 L 285.00 270.00 L 285.00 262.50 L 285.00 255.00 L 292.50 255.00 L 300.00 255.00 L 300.00 262.50 L 300.00 270.00 L 292.50 270.00 L 285.00 270.00 L 285.00 277.50 L 285.00 285.00 L 292.50 285.00 L 300.00 285.00 L 300.00 292.50 L 300.00 300.00 L 292.50 300.00 L 285.00 300.00 L 285.00 307.50 L 285.00 315.00 L 277.50 315.00 L 270.00 315.00 L 270.00 307.50 ZM 285.00 292.50 L 285.00 285.00 L 277.50 285.00 L 270.00 285.00 L 270.00 292.50 L 270.00 300.00 L 277.50 300.00 L 285.00 300.00 L 285.00 292.50 ZM 75.00 112.50 L 75.00 105.00 L 67.50 105.00 L 60.00 105.00 L 60.00 97.50 L 60.00 90.00 L 67.50 90.00 L 75.00 90.00 L 75.00 82.50 L 75.00 75.00 L 67.50 75.00 L 60.00 75.00 L 60.00 67.50 L 60.00 60.00 L 67.50 60.00 L 75.00 60.00 L 75.00 67.50 L 75.00 75.00 L 82.50 75.00 L 90.00 75.00 L 90.00 67.50 L 90.00 60.00 L 97.50 60.00 L 105.00 60.00 L 105.00 67.50 L 105.00 75.00 L 112.50 75.00 L 120.00 75.00 L 120.00 67.50 L 120.00 60.00 L 127.50 60.00 L 135.00 60.00 L 135.00 67.50 L 135.00 75.00 L 127.50 75.00 L 120.00 75.00 L 120.00 82.50 L 120.00 90.00 L 112.50 90.00 L 105.00 90.00 L 105.00 97.50 L 105.00 105.00 L 97.50 105.00 L 90.00 105.00 L 90.00 112.50 L 90.00 120.00 L 82.50 120.00 L 75.00 120.00 L 75.00 112.50 ZM 90.00 97.50 L 90.00 90.00 L 97.50 90.00 L 105.00 90.00 L 105.00 82.50 L 105.00 75.00 L 97.50 75.00 L 90.00 75.00 L 90.00 82.50 L 90.00 90.00 L 82.50 90.00 L 75.00 90.00 L 75.00 97.50 L 75.00 105.00 L 82.50 105.00 L 90.00 105.00 L 90.00 97.50 Z" fill="rgb(253,253,253)"/>
</g>
</svg>